<?xml version="1.0" encoding="UTF-8"?>
<svg version="1.1" xmlns="http://www.w3.org/2000/svg" width="80" height="80">
<path d="M0 0 C5.04467402 2.81937869 7.94606028 7.02568084 9.75 12.4375 C10.24329868 18.25842442 9.57032655 21.6339549 6.625 26.67578125 C5.5275855 28.55746642 5.5275855 28.55746642 5.75 31.4375 C6.74 32.9534375 6.74 32.9534375 7.75 34.5 C10.42593549 39.01086268 10.58009185 43.32142372 9.75 48.4375 C7.35760989 53.31429522 4.03431045 56.24705604 -0.25 59.4375 C-3.05311906 60.37187302 -4.80001777 60.57353082 -7.70214844 60.59863281 C-9.04934967 60.61304413 -9.04934967 60.61304413 -10.42376709 60.62774658 C-11.87689301 60.6341214 -11.87689301 60.6341214 -13.359375 60.640625 C-14.85963226 60.64917511 -14.85963226 60.64917511 -16.39019775 60.65789795 C-18.50849347 60.66734744 -20.62680389 60.67388173 -22.74511719 60.67773438 C-25.97357123 60.68742071 -29.2013834 60.71843699 -32.4296875 60.75 C-34.48957956 60.75653222 -36.54947617 60.76178183 -38.609375 60.765625 C-39.57002869 60.7779718 -40.53068237 60.7903186 -41.52044678 60.80303955 C-47.81864671 60.78228559 -53.03067521 60.20929533 -57.9921875 55.9375 C-61.79008032 50.90856606 -63.09310111 46.73188497 -62.25 40.4375 C-60.62538941 36.18657591 -58.26694833 32.71377072 -54.25 30.4375 C-53.59 30.4375 -52.93 30.4375 -52.25 30.4375 C-52.17523438 29.880625 -52.10046875 29.32375 -52.0234375 28.75 C-50.82643996 21.80272018 -48.19394654 16.3848121 -42.44140625 12.0859375 C-37.77154647 9.29406434 -33.86484553 8.29610521 -28.5 8.375 C-27.70078125 8.38402344 -26.9015625 8.39304687 -26.078125 8.40234375 C-25.47484375 8.41394531 -24.8715625 8.42554688 -24.25 8.4375 C-23.98058594 7.83292969 -23.71117187 7.22835938 -23.43359375 6.60546875 C-18.67488387 -2.11098004 -8.52174083 -3.78384697 0 0 Z " fill="#3B3E3F" transform="translate(66.25,10.5625)"/>
<path d="M0 0 C5.14614081 2.88143444 8.43851211 6.49267927 10.125 12.25 C10.351875 13.28125 10.57875 14.3125 10.8125 15.375 C11.40417969 15.44976562 11.99585938 15.52453125 12.60546875 15.6015625 C16.736304 16.28891192 19.96108085 16.90435064 22.875 20.0625 C25.17496571 23.99469944 25.53292154 25.89237711 24.8125 30.375 C22.68863751 34.39516828 21.03167371 36.70207949 16.8125 38.375 C14.61878967 38.64915466 14.61878967 38.64915466 12.21508789 38.68139648 C10.85831688 38.70537758 10.85831688 38.70537758 9.47413635 38.72984314 C8.50427292 38.73520584 7.53440948 38.74056854 6.53515625 38.74609375 C5.53165634 38.75512222 4.52815643 38.7641507 3.49424744 38.77345276 C1.37355531 38.78794918 -0.74718147 38.79684048 -2.86791992 38.80053711 C-6.10997804 38.81244483 -9.35013969 38.86164695 -12.59179688 38.91210938 C-14.65363655 38.92157255 -16.71548791 38.92880809 -18.77734375 38.93359375 C-20.22910255 38.96289223 -20.22910255 38.96289223 -21.71018982 38.99278259 C-26.39261172 38.96142912 -28.48341006 38.92445622 -32.27563477 35.96508789 C-35.28897765 31.8827798 -35.7080821 29.49405735 -35.1875 24.375 C-33.01492845 21.65928556 -31.30379657 19.83634766 -28.0703125 18.5 C-26.01121085 17.55073678 -26.01121085 17.55073678 -25.5703125 15.45703125 C-25.48523437 14.70808594 -25.40015625 13.95914063 -25.3125 13.1875 C-24.34986153 7.9436536 -22.15230999 4.87503561 -18.1875 1.375 C-12.26948098 -2.61323021 -6.38505313 -2.87387514 0 0 Z " fill="#8EC7F5" transform="translate(45.1875,26.625)"/>
<path d="M0 0 C3.8076546 2.01159111 7.04834016 4.09668033 9 8 C9.56482546 13.00273979 9.55327708 15.01837937 7.0625 19.4375 C5 22 5 22 4 23 C2.00041636 23.04080783 -0.00045254 23.04254356 -2 23 C-2.309375 21.845 -2.61875 20.69 -2.9375 19.5 C-4.99981617 13.83873993 -9.38635321 10.63675303 -14 7 C-10.96807495 0.61977512 -7.13538723 -1.25109872 0 0 Z " fill="#F6BB09" transform="translate(61,15)"/>
</svg>
